<svg id="applet_logo" xmlns="http://www.w3.org/2000/svg" xmlns:xlink="http://www.w3.org/1999/xlink" x="0px" y="0px" viewBox="0 0 16 16" style="enable-background:new 0 0 16 16;" xml:space="preserve">

	<g fill="#38b0e3">
		<path class="st0" d="M13.9,12.3l-2.7-4.6L8.6,3.4C8.4,3,8,2.9,7.6,3.1C7.5,3.2,7.4,3.2,7.4,3.4L4.8,7.6l-2.7,4.6c-0.1,0.2-0.1,0.5,0.2,0.7C2.3,13,2.4,13,2.5,13h0.9c0.3,0,0.7-0.2,0.8-0.5l0.5-0.8H3.9l2-3.4l2-3.4l2,3.4l2,3.4h-0.9l0.5,0.8c0.2,0.3,0.5,0.5,0.8,0.5h0.9c0.3,0,0.5-0.2,0.5-0.5C14,12.4,14,12.3,13.9,12.3z"/>
		<path class="st0" d="M8.3,7.9C8.2,7.8,8,7.7,7.9,7.8c0,0-0.1,0.1-0.1,0.1L6.5,10c-0.1,0.1,0,0.3,0.1,0.4c0,0,0.1,0,0.1,0h2.5c0.2,0,0.3-0.1,0.3-0.3c0-0.1,0-0.1,0-0.1L8.3,7.9z"/>
	</g>
	
</svg>
