<svg version="1.0" xmlns="http://www.w3.org/2000/svg" viewBox="0 0 512.000000 512.000000" preserveAspectRatio="xMidYMid meet">
	
	<g transform="translate(0.000000,512.000000) scale(0.100000,-0.100000)"
	fill="#38b0e3" stroke="none">
		<path d="M2335 4748 c-498 -50 -984 -284 -1343 -647 -452 -457 -683 -1109 -621 -1747 102 -1053 930 -1881 1983 -1983 561 -55 1139 118 1581 473 462 372 757 918 814 1510 55 560 -119 1139 -473 1581 -467 581 -1199 888 -1941 813z m450 -138 c612 -69 1152 -400 1500 -920 78 -117 184 -334 227 -466 175 -529 139 -1079 -102 -1569 -204 -415 -522 -736 -938 -944 -266 -133 -532 -199 -847 -208 -219 -7 -381 11 -581 62 -750 192 -1336 801 -1498 1555 -165 770 113 1557 724 2047 297 238 649 388 1025 438 123 16 369 18 490 5z"/>
		<path d="M2492 4053 c-18 -9 -44 -30 -56 -47 -13 -17 -303 -515 -645 -1108 -484 -838 -621 -1084 -621 -1110 0 -38 30 -92 60 -108 14 -8 78 -10 190 -8 l168 3 43 30 c30 22 61 61 110 145 38 63 69 118 69 122 0 4 -42 9 -94 10 l-95 3 472 817 c291 505 475 814 481 808 5 -5 219 -373 476 -817 l466 -808 -93 -3 c-65 -2 -93 -6 -92 -15 0 -7 31 -61 67 -122 49 -79 79 -118 110 -140 l44 -30 163 -3 c187 -4 211 3 240 65 14 29 16 45 8 73 -8 29 -1151 2025 -1245 2173 -51 80 -146 110 -226 70z"/>
		<path d="M2523 2908 c-18 -20 -254 -422 -297 -505 -21 -42 -20 -69 4 -93 19 -19 33 -20 339 -20 l320 0 20 26 c12 15 21 34 21 42 0 22 -297 533 -322 555 -28 23 -60 21 -85 -5z"/>
	</g>
	
</svg>
